<svg xmlns="http://www.w3.org/2000/svg" viewBox="-7323.9 4204.112 30 20"><defs></defs><g id="Group_337" data-name="Group 337"><path id="Path_518" data-name="Path 518" d="M-7323.126 4212.67h28.452a.76.76 0 0 1 .774.744v1.4a.76.76 0 0 1-.774.744h-28.452a.76.76 0 0 1-.774-.75v-1.394a.76.76 0 0 1 .774-.744z"/><path id="Path_519" data-name="Path 519" d="M-7323.126 4204.112h28.452a.76.76 0 0 1 .774.744v1.4a.76.76 0 0 1-.774.744h-28.452a.76.76 0 0 1-.774-.75v-1.394a.76.76 0 0 1 .774-.744z"/><path id="Path_520" data-name="Path 520" d="M-7323.126 4221.23h28.452a.76.76 0 0 1 .774.743v1.4a.76.76 0 0 1-.774.744h-28.452a.76.76 0 0 1-.774-.75v-1.394a.76.76 0 0 1 .774-.744z"/></g></svg>