<svg xmlns="http://www.w3.org/2000/svg" viewBox="598.071 558.951 568.709 262.651"><defs><style>.cls-1{fill-rule:evenodd}</style></defs><g id="Symbol_1_1" data-name="Symbol 1 – 1" transform="translate(-3 442)" fill="#fff"><path id="R_Lower" data-name="R Lower" class="cls-1" d="M6667.05 11459c13.277 22.659 28.029 48.623 41.424 71.577-1.711.118-2.773.295-3.776.295-16.463.059-32.868 0-49.272.177-4.13.059-6.668-1.238-8.792-4.9-7.79-13.634-15.9-27.056-23.97-40.82-.33-.562-3.791-6.665-4.268-7.481.004.002 24.771-8.248 48.654-18.848z" transform="translate(-5592.922 -11151.506)"/><path id="M_Lower" data-name="M Lower" class="cls-1" d="M6261.25 11459.59c104.444 59.48 344.077 24.548 337.94 26.2 8.733 15.048 17.29 29.74 26.082 44.965-1.239.06-2.007.118-2.833.118-16.523.059-33.1 0-49.626.177-4.248.059-6.727-1.593-8.733-5.134-5.133-9.146-10.5-18.174-15.637-27.32a3.983 3.983 0 0 0-4.544-2.3c-10.385 1.416-20.83 2.656-31.746 4.071 5.665 9.973 11.271 19.827 17.171 30.272-1.593.117-2.714.235-3.9.235-16.05.059-32.1 0-48.15.177-3.895.059-6.255-1.416-8.084-4.721-3.835-6.9-7.907-13.631-11.861-20.476a4.98 4.98 0 0 0-4.662-2.95c-17.879-.59-35.759-1.3-53.639-2.242-2.832-.178-4.012.826-5.192 2.949-4.189 7.436-8.615 14.693-12.746 22.129-2.065 3.658-4.721 5.369-9.028 5.311-16.4-.177-32.867-.118-49.272-.177h-3.127c7.73-13.218 15.106-25.905 22.659-38.886-6.727-1.712-13.218-3.3-19.708-5.076-4.662-1.3-9.382-2.537-13.926-4.248-2.537-.943-3.481-.177-4.661 1.889-7.73 13.631-15.638 27.084-23.309 40.715-2.242 4.072-5.016 5.9-9.8 5.842-17.053-.235-34.107-.117-51.927-.117 13.522-23.135 28.923-48.566 42.259-71.403z" transform="translate(-5592.922 -11151.506)"/><path id="Swish" class="cls-1" d="M6269.928 8924.627c-107.1 48.269-313.688 64.5-425.686-9.8-14.339-9.323-27.557-20.062-37.411-34.283-7.612-10.917-12.392-22.837-11.507-36.468 1.062-16.522 9.736-28.914 21.6-39.418 14.4-12.686 31.216-21.3 49.1-27.674 15.46-5.488 31.274-10.032 46.971-14.988.177.473.295.943.472 1.416-4.839 1.594-9.618 3.068-14.4 4.779-19.473 7.021-38.414 15.225-54.465 28.561a84.808 84.808 0 0 0-14.221 14.87c-10.326 14.1-10.916 29.327-3.6 45.023 7.081 14.987 18.883 25.491 32.514 34.106 24.075 15.165 50.747 24.135 78.187 30.743 36.821 8.911 74.173 12.923 112 13.69a651.239 651.239 0 0 0 219.806-33.34 567.712 567.712 0 0 0 91.522-39.418 7.939 7.939 0 0 1 3.127-1.121c-26.267 28.33-60.61 47.213-94.009 63.322z" transform="translate(-5194.148 -8613.651)"/><path id="R_Upper" data-name="R Upper" class="cls-1" d="M11027.764 8362.4c16.227 0 31.924-1 47.443.236 19.118 1.533 36.349-13.749 40.361-29.445 5.9-23.25-8.379-47.029-31.746-51.691-5.193-1-10.74-.531-16.109-.531q-40.45-.088-80.842.118c-4.309 0-6.963-1.476-8.969-5.251-7.141-13.219-14.576-26.26-21.834-39.359-.943-1.771-1.829-3.541-3.068-5.842a62.059 62.059 0 0 1 6.609-.648c34.638 0 69.217-.178 103.795.059 16.641.117 33.34 1 49.1 7.316 32.984 13.277 52.753 37.234 56.943 72.816 3.48 29.387-1.357 50.512-22.424 71.459a31 31 0 0 1-8.2 6.02c-12.214 4.662-24.489 7.494-36.88 10.916a416.6 416.6 0 0 1-44.729 9.795 4.051 4.051 0 0 1-3.481-1.357c-8.32-13.807-16.522-27.732-24.726-41.6-.417-.77-.653-1.597-1.243-3.011z" transform="translate(-10047.576 -8112.969)"/><path id="M_Upper" data-name="M Upper" class="cls-1" d="M7242 8392.027c31.333-53.58 61.9-105.92 92.82-158.791 17.053 28.383 33.812 56.294 50.983 84.795 16.7-28.5 33.045-56.471 49.744-85.031 35.465 61.014 70.634 121.5 106.156 182.572-4.308.767-8.143 1.593-11.979 2.123-13.159 1.771-26.318 3.364-39.477 5.193-2.42.354-3.01-1-3.895-2.537q-24.075-41.512-48.151-83.084c-.767-1.3-1.593-2.537-2.714-4.307-6.786 11.447-13.218 22.422-19.768 33.575 11.979 19.413 24.075 39 36.349 58.948a21.457 21.457 0 0 1-3.245.531c-17.879.06-35.818.119-53.7 0-1.416 0-3.069-1.3-4.013-2.419a58.633 58.633 0 0 1-4.308-6.667c-.413.354-.826.53-.944.885-2.183 7.2-7.2 7.906-13.867 6.9-14.693-2.242-29.5-3.776-44.964-5.724 1-1.889 1.593-2.95 2.183-3.953q12.746-21.952 25.55-43.726c1.3-2.183 1.594-3.776.118-6.077-6.609-10.15-12.923-20.477-19.354-30.744-.413-.59-.944-1.121-1.652-2.006-5.665 9.795-11.212 19.295-16.7 28.8-8.615 14.988-17.23 29.917-25.787 44.905-1.3 2.36-2.6 3.127-5.311 2.065-14.452-5.427-29.027-10.737-44.074-16.226z" transform="translate(-6555.557 -8115.867)"/></g></svg>